<svg width="122" height="122" viewBox="0 0 122 122" fill="none" xmlns="http://www.w3.org/2000/svg" xmlns:xlink="http://www.w3.org/1999/xlink">
<style>.Group_3_228 {
	animation: 2s linear 0s infinite normal forwards running Group_3_228;
		transform: translateX(22.55px) translateY(86.48px);
}
@keyframes Group_3_228 {
	0% {
		transform: translateX(22.55px) translateY(86.48px);
	}
	25% {
		transform: translateX(22.55px) translateY(89.48px);
	}
	50% {
		transform: translateX(22.55px) translateY(86.48px);
	}
	100% {
		transform: translateX(22.55px) translateY(86.48px);
	}
}.Vector_237 {
	animation: 2s linear 0s infinite normal forwards running Vector_237;
		transform: translateX(22px) translateY(18px);
}
@keyframes Vector_237 {
	0% {
		transform: translateX(22px) translateY(18px);
	}
	25% {
		transform: translateX(22px) translateY(15px);
	}
	50% {
		transform: translateX(22px) translateY(18px);
	}
	100% {
		transform: translateX(22px) translateY(18px);
	}
}.Vector_759 {
	animation: 2s linear 0s infinite normal forwards running Vector_759;
		transform: translateX(54.28px) translateY(71.57px);
}
@keyframes Vector_759 {
	0% {
		transform: translateX(54.28px) translateY(71.57px);
	}
	25% {
		transform: translateX(54.28px) translateY(66.57px);
	}
	50% {
		transform: translateX(54.28px) translateY(71.57px);
	}
	100% {
		transform: translateX(54.28px) translateY(71.57px);
	}
}.Vector_259 {
	animation: 2s linear 0s infinite normal forwards running Vector_259;
		transform: translateX(48.68px) translateY(54.75px);
		opacity: 1;
}
@keyframes Vector_259 {
	0% {
		transform: translateX(48.68px) translateY(54.75px);
		opacity: 1;
	}
	25% {
		transform: translateX(48.68px) translateY(52.75px);
		opacity: 0;
	}
	50% {
		transform: translateX(48.68px) translateY(54.75px);
		opacity: 1;
	}
	100% {
		transform: translateX(48.68px) translateY(54.75px);
		opacity: 1;
	}
}.Vector_577 {
	animation: 2s linear 0s infinite normal forwards running Vector_577;
		transform: translateX(67.91px) translateY(54.97px);
		opacity: 1;
}
@keyframes Vector_577 {
	0% {
		transform: translateX(67.91px) translateY(54.97px);
		opacity: 1;
	}
	25% {
		transform: translateX(67.91px) translateY(51.97px);
		opacity: 0;
	}
	50% {
		transform: translateX(67.91px) translateY(54.97px);
		opacity: 1;
	}
	100% {
		transform: translateX(67.91px) translateY(54.97px);
		opacity: 1;
	}
}
</style>
<g width="122" height="122" data-name="Frame 1">
	<g transform="translate(22.55 86.48)" class="Group_3_228" width="83.15" height="11.52" data-name="Group 3">
		<path d="M33.1368 5.8746C28.3242 7.00001 23.5264 8.14023 18.7138 9.26564C15.4708 10.0209 12.213 10.7909 8.95526 11.4572C8.17043 11.6201 7.26714 11.4572 6.48232 11.2055C5.65307 10.9538 4.89785 10.4503 4.11303 10.0357C0.455439 8.15504 0.411017 8.11062 0.899683 4.05321C0.944107 3.6682 1.2995 3.298 1.53643 2.94261C1.59566 2.85376 1.75855 2.85376 1.8474 2.77972C5.25325 0.0254227 8.79237 -0.685364 13.22 0.662168C19.7355 2.66125 26.488 3.91994 33.1516 5.48959V5.8746H33.1368Z" fill="white" data-name="Vector" transform="translate(50.68 0)"/>
		<path d="M17.2512 6.34754H0.888349C0.977197 4.43731 1.02162 2.74919 1.18451 1.07588C1.19932 0.853757 1.9101 0.572407 2.30992 0.557599C5.90828 0.39471 9.50663 0.276246 13.105 0.187398C15.0893 0.142974 16.037 1.01665 16.422 2.92688C16.6441 4.0671 16.9699 5.19252 17.2512 6.34754V6.34754Z" fill="white" data-name="Vector" transform="translate(10.89 2.18)"/>
		<path d="M0.931494 6.61409C1.16842 3.25266 1.61266 2.70477 4.48542 1.90513C6.05508 1.46089 7.60992 0.61683 9.16477 0.631638C10.9121 0.646446 12.6298 1.71263 14.392 1.80148C17.2055 1.94956 17.9311 3.66729 18.2865 6.27351C12.5262 5.78484 6.78067 5.23694 0.946302 6.59928L0.931494 6.61409Z" fill="white" data-name="Vector" transform="translate(29.94 2.63)"/>
		<path d="M7.92674 5.16381C7.88232 8.33274 7.45288 9.13237 5.67592 9.57661C3.6176 10.0801 1.61851 9.29526 0.641181 7.60714C-0.424998 5.75614 -0.143645 3.57935 1.35197 2.14297C2.80316 0.765824 5.11321 0.558514 6.89018 1.52104C8.60791 2.45394 7.71943 4.00879 7.91193 5.16381H7.92674ZM7.17153 5.41555C7.20115 3.78667 6.10535 2.60202 4.52089 2.54279C2.81796 2.48356 1.52966 3.63859 1.50005 5.26747C1.47043 6.80751 2.84758 8.21427 4.40242 8.19946C5.97208 8.19946 7.15672 7.00001 7.18634 5.40074L7.17153 5.41555Z" fill="white" data-name="Vector" transform="translate(0 0.93)"/>
	</g>
	<path d="M18.9991 37.2951C16.8816 37.0582 14.8381 36.688 12.7946 36.614C9.96623 36.5251 9.58122 37.0286 9.50718 39.7977C9.3591 45.5728 9.64045 51.3035 11.6395 56.5012L1.19987 64.8677L0.977749 64.7492L3.37665 60.988L0.000417709 61.8172C1.39237 59.2703 2.45855 56.9898 3.82089 54.8871C5.04996 53.0065 5.6719 51.1406 5.6719 48.8306C5.6719 46.4021 6.45673 43.9736 6.60481 41.5302C6.7825 38.613 6.94539 35.6366 6.57519 32.7491C5.47939 24.0419 7.40444 15.8383 10.3512 7.78269C10.988 6.03534 11.8024 4.33242 12.5576 2.62949C13.3128 0.92657 14.1273 0.482328 15.5341 1.65216C18.3772 4.00664 21.1019 6.52401 23.6341 9.21907C27.2176 13.0396 27.8692 18.2372 29.6017 23.109C31.2158 22.9757 32.9039 22.724 34.592 22.7388C38.5902 22.7684 42.5884 22.8721 46.5717 23.0646C47.8896 23.1238 48.7485 23.109 49.0743 21.5098C49.4593 19.6291 50.1256 17.8077 50.7476 15.9715C52.7911 9.90024 57.0558 5.5763 62.0609 1.9039C64.1341 0.378672 64.7856 0.956186 65.7481 3.02931C68.6209 9.23388 70.6496 15.705 71.5529 22.4427C72.0119 25.8633 71.9527 29.4321 71.5233 32.8675C70.9754 37.2655 71.39 41.5302 72.1748 45.8098C72.2341 46.1503 72.3821 46.5205 72.3377 46.8463C71.8046 50.726 73.4039 53.9098 75.5362 56.975C76.484 58.3374 77.0615 59.9514 77.9796 61.7876L74.7514 60.988L77.2688 64.9417C73.5224 61.9653 70.2054 59.3147 66.7255 56.5456C68.8134 50.4002 69.3317 43.8107 68.4876 37.1174C65.3335 35.9772 62.4015 36.9545 59.2326 37.4136C59.9138 34.0374 57.5297 32.8231 55.0863 31.8458C54.1534 31.4756 52.9096 31.4756 51.9026 31.6977C47.9637 32.5862 44.0544 33.6523 40.1302 34.5853C39.4935 34.7333 38.7531 34.6297 38.1163 34.4816C34.1182 33.5487 30.1644 32.4677 26.1514 31.6533C22.3161 30.8832 19.2509 33.4006 19.0139 37.2803L18.9991 37.2951ZM61.1873 27.3145L68.0582 33.7116C68.843 23.7162 69.2576 13.8984 64.1785 4.37684C59.8101 9.78178 57.5593 15.705 55.7971 21.9244C56.6856 22.1021 57.4852 22.265 58.2849 22.4279C59.1141 22.5907 59.9434 22.7388 60.8911 22.9165L59.9434 25.1229L62.905 26.3816L61.1873 27.3293V27.3145ZM14.1421 4.3028C9.1666 13.8836 9.3591 23.6865 10.292 33.5043L17.0889 27.2849L15.46 26.3668L18.392 25.0785L17.4147 22.8869L22.5086 21.8948C20.7317 15.6161 18.466 9.73736 14.1273 4.3028H14.1421Z" fill="white" data-name="Vector" class="Vector_237"/>
	<path d="M13.9003 2.46149C13.4117 5.55637 11.7088 7.11122 9.72447 8.44394C7.91789 9.6582 6.12612 9.62858 4.31954 8.44394C2.61661 7.31853 1.19504 5.9858 0.513869 3.97191C-0.0488366 2.28379 0.380598 0.877028 2.0391 0.743756C5.34129 0.492019 8.70272 0.551251 12.0197 0.743756C12.7453 0.78818 13.3969 1.95801 13.9003 2.44668V2.46149Z" fill="white" data-name="Vector" class="Vector_759"/>
	<path d="M2.25182 0.744999C3.77657 0.833797 5.98227 4.26731 5.43454 5.39208C5.30131 5.67327 4.50193 5.91006 4.22067 5.77687C3.18443 5.22928 2.1778 4.5929 1.2896 3.83812C0.904711 3.49773 0.549428 2.60975 0.727069 2.26936C1.08235 1.60338 1.82252 1.14459 2.23701 0.759799L2.25182 0.744999Z" fill="white" data-name="Vector" class="Vector_259"/>
	<path d="M6.05 2.60957C5.63519 3.18728 5.4426 3.63167 5.10186 3.86867C4.21297 4.52044 3.26482 5.11296 2.31667 5.66104C2.00556 5.83879 1.35371 5.98692 1.25001 5.85361C1.01297 5.54254 0.820379 4.95002 0.953712 4.63895C1.47223 3.49835 2.05 2.37256 2.80556 1.3801C3.07223 1.0394 3.99074 0.861645 4.42037 1.05421C5.02778 1.32085 5.4426 2.00224 6.05 2.59476V2.60957Z" fill="white" data-name="Vector" class="Vector_577"/>
</g>
</svg>